<svg aria-hidden="true" style="position: absolute; width: 0; height: 0; overflow: hidden;" version="1.1" xmlns="http://www.w3.org/2000/svg" xmlns:xlink="http://www.w3.org/1999/xlink">
<defs>
<symbol id="icon-arrow-left" viewBox="0 0 37 32">
<path fill="#fff" style="fill: var(--color1, #fff)" d="M2.667 21.333v-16c0-2.946 2.388-5.333 5.333-5.333h21.333c2.946 0 5.333 2.388 5.333 5.333v16c0 2.946-2.388 5.333-5.333 5.333h-21.333c-2.946 0-5.333-2.388-5.333-5.333z"></path>
<path fill="#2c2c2c" style="fill: var(--color2, #2c2c2c)" d="M11.634 13.937l9.288 8.85c0.155 0.148 0.361 0.23 0.575 0.23s0.42-0.082 0.575-0.23l0.010-0.010c0.075-0.072 0.135-0.158 0.176-0.253s0.062-0.198 0.062-0.302-0.021-0.207-0.062-0.302c-0.041-0.096-0.101-0.182-0.176-0.253l-8.747-8.333 8.747-8.33c0.075-0.072 0.135-0.158 0.176-0.253s0.062-0.198 0.062-0.302-0.021-0.207-0.062-0.302c-0.041-0.096-0.101-0.182-0.176-0.253l-0.010-0.010c-0.155-0.148-0.361-0.23-0.575-0.23s-0.42 0.082-0.575 0.23l-9.288 8.85c-0.082 0.078-0.147 0.171-0.191 0.275s-0.067 0.215-0.067 0.328c0 0.113 0.023 0.225 0.067 0.328s0.109 0.197 0.191 0.275z"></path>
</symbol>
<symbol id="icon-arrow-right" viewBox="0 0 37 32">
<path fill="#fff" style="fill: var(--color1, #fff)" d="M34.667 5.333v16c0 2.946-2.388 5.333-5.333 5.333h-21.333c-2.946 0-5.333-2.388-5.333-5.333v-16c0-2.946 2.388-5.333 5.333-5.333h21.333c2.946 0 5.333 2.388 5.333 5.333z"></path>
<path fill="#2c2c2c" style="fill: var(--color2, #2c2c2c)" d="M25.7 12.73l-9.288-8.85c-0.155-0.148-0.361-0.23-0.575-0.23s-0.42 0.082-0.575 0.23l-0.010 0.010c-0.075 0.072-0.135 0.158-0.176 0.253s-0.062 0.198-0.062 0.302 0.021 0.207 0.062 0.302c0.041 0.096 0.101 0.182 0.176 0.253l8.747 8.333-8.747 8.33c-0.075 0.072-0.135 0.158-0.176 0.253s-0.062 0.198-0.062 0.302 0.021 0.207 0.062 0.302c0.041 0.096 0.101 0.182 0.176 0.253l0.010 0.010c0.155 0.148 0.361 0.23 0.575 0.23s0.42-0.082 0.575-0.23l9.288-8.85c0.082-0.078 0.147-0.171 0.191-0.275s0.067-0.215 0.067-0.328c0-0.113-0.023-0.225-0.067-0.328s-0.109-0.197-0.191-0.275z"></path>
</symbol>
<symbol id="icon-finger_click" viewBox="0 0 32 32">
<path fill="#7eb101" style="fill: var(--color3, #7eb101)" d="M15.5 1.333c2.022 0 3.75 0.706 5.183 2.117s2.15 3.128 2.15 5.15c0 1.156-0.25 2.244-0.75 3.267s-1.206 1.889-2.117 2.6h-1.133v-1.667c0.645-0.511 1.139-1.133 1.483-1.867s0.517-1.511 0.517-2.333c0-1.467-0.522-2.711-1.567-3.733s-2.3-1.533-3.767-1.533-2.722 0.511-3.767 1.533c-1.044 1.022-1.567 2.267-1.567 3.733 0 0.822 0.172 1.6 0.517 2.333s0.839 1.356 1.483 1.867v2.4c-1.245-0.645-2.222-1.556-2.933-2.733s-1.067-2.467-1.067-3.867c0-2.022 0.717-3.739 2.15-5.15s3.161-2.117 5.183-2.117zM14.233 29.333c-0.378 0-0.733-0.072-1.067-0.217s-0.622-0.339-0.867-0.583l-6.867-6.867 1.867-1.933c0.311-0.311 0.661-0.55 1.050-0.717s0.794-0.194 1.217-0.083l2.6 0.6v-10.867c0-0.933 0.322-1.722 0.967-2.367s1.433-0.967 2.367-0.967 1.722 0.322 2.367 0.967c0.644 0.644 0.967 1.433 0.967 2.367v5.733h0.867c0.111 0 0.211 0.022 0.3 0.067s0.189 0.089 0.3 0.133l4.933 2.4c0.533 0.244 0.928 0.639 1.183 1.183s0.328 1.106 0.217 1.683l-1.2 7.267c-0.111 0.645-0.422 1.172-0.933 1.583s-1.089 0.617-1.733 0.617h-8.533zM13.967 27.333h9.367l1.433-8.3-6.1-3.033h-1.833v-7.333c0-0.4-0.122-0.722-0.367-0.967s-0.567-0.367-0.967-0.367-0.722 0.122-0.967 0.367c-0.244 0.244-0.367 0.567-0.367 0.967v13.3l-5.133-1.1-0.767 0.767 5.7 5.7zM23.333 27.333v0z"></path>
</symbol>
<symbol id="icon-rocket" viewBox="0 0 32 32">
<path fill="#7eb101" style="fill: var(--color3, #7eb101)" d="M7.233 13.633l3.533 1.5c0.4-0.8 0.828-1.589 1.283-2.367s0.939-1.522 1.45-2.233l-2.633-0.533-3.633 3.633zM12.367 16.333l4.433 4.433c1.267-0.578 2.456-1.233 3.567-1.967s2.011-1.444 2.7-2.133c1.8-1.8 3.122-3.644 3.967-5.533s1.3-4.022 1.367-6.4c-2.378 0.067-4.511 0.522-6.4 1.367s-3.733 2.167-5.533 3.967c-0.689 0.689-1.4 1.589-2.133 2.7s-1.389 2.3-1.967 3.567zM20 13.133c-0.444-0.444-0.667-0.995-0.667-1.65s0.222-1.206 0.667-1.65 0.994-0.667 1.65-0.667c0.656 0 1.206 0.222 1.65 0.667s0.667 0.994 0.667 1.65c0 0.655-0.222 1.206-0.667 1.65s-0.994 0.667-1.65 0.667-1.206-0.222-1.65-0.667zM19.5 25.9l3.633-3.633-0.533-2.633c-0.711 0.511-1.456 0.994-2.233 1.45s-1.567 0.883-2.367 1.283l1.5 3.533zM30.367 2.767c0.2 3.022-0.178 5.778-1.133 8.267s-2.533 4.833-4.733 7.033l-0.133 0.133 0.733 3.667c0.067 0.333 0.050 0.656-0.050 0.967s-0.272 0.589-0.517 0.833l-5.7 5.733-2.833-6.6-5.667-5.667-6.6-2.833 5.733-5.7c0.244-0.244 0.522-0.417 0.833-0.517s0.633-0.117 0.967-0.050l3.667 0.733c0.022-0.022 0.044-0.039 0.067-0.050s0.044-0.028 0.067-0.050c2.2-2.2 4.544-3.783 7.033-4.75s5.244-1.35 8.267-1.15zM5.967 21.167c0.778-0.778 1.728-1.172 2.85-1.183s2.072 0.372 2.85 1.15c0.778 0.778 1.161 1.728 1.15 2.85s-0.406 2.072-1.183 2.85c-0.578 0.578-1.472 1.055-2.683 1.433s-3.028 0.733-5.45 1.067c0.333-2.422 0.683-4.244 1.050-5.467s0.839-2.122 1.417-2.7zM7.367 22.6c-0.311 0.333-0.589 0.856-0.833 1.567s-0.456 1.622-0.633 2.733c1.111-0.178 2.022-0.389 2.733-0.633s1.233-0.522 1.567-0.833c0.422-0.378 0.639-0.85 0.65-1.417s-0.183-1.061-0.583-1.483c-0.422-0.4-0.917-0.595-1.483-0.583s-1.039 0.228-1.417 0.65z"></path>
</symbol>
<symbol id="icon-star" viewBox="0 0 32 32">
<path fill="#fff" style="fill: var(--color1, #fff)" d="M0 0h32v32h-32v-32z"></path>
<path fill="#ffe550" style="fill: var(--color4, #ffe550)" d="M13.557 6.456c1.012-1.982 3.84-1.982 4.852 0l1.281 2.51c0.396 0.776 1.139 1.316 1.999 1.453l2.775 0.441c2.198 0.35 3.073 3.049 1.499 4.625l-1.98 1.983c-0.617 0.617-0.901 1.493-0.765 2.356l0.437 2.773c0.347 2.2-1.942 3.868-3.925 2.859l-2.513-1.278c-0.775-0.394-1.692-0.394-2.467 0l-2.513 1.278c-1.983 1.009-4.272-0.659-3.925-2.859l0.437-2.773c0.136-0.863-0.148-1.738-0.765-2.356l-1.98-1.983c-1.574-1.576-0.699-4.275 1.499-4.625l2.775-0.441c0.86-0.137 1.602-0.677 1.999-1.453l1.281-2.51z"></path>
<path fill="#bbf330" style="fill: var(--color5, #bbf330)" d="M16 32c-8.837 0-16-7.163-16-16s7.163-16 16-16c8.837 0 16 7.163 16 16s-7.163 16-16 16zM16 30.294c7.899 0 14.297-6.402 14.297-14.294s-6.398-14.294-14.297-14.294-14.297 6.402-14.297 14.294c0 7.892 6.398 14.294 14.297 14.294z"></path>
</symbol>
<symbol id="icon-stars" viewBox="0 0 180 32">
<path fill="#ffe550" style="fill: var(--color4, #ffe550)" d="M13.707 2.191c0.519-1.254 2.289-1.254 2.808 0l3.066 7.403c0.219 0.529 0.714 0.89 1.283 0.936l7.957 0.641c1.348 0.109 1.895 1.798 0.868 2.682l-6.063 5.216c-0.433 0.373-0.622 0.957-0.49 1.514l1.852 7.799c0.314 1.321-1.117 2.366-2.272 1.658l-6.813-4.179c-0.487-0.299-1.099-0.299-1.585 0l-6.813 4.179c-1.154 0.708-2.586-0.336-2.272-1.658l1.852-7.799c0.132-0.557-0.057-1.142-0.49-1.514l-6.063-5.216c-1.027-0.884-0.481-2.574 0.868-2.682l7.958-0.641c0.568-0.046 1.064-0.407 1.283-0.936l3.066-7.403z"></path>
<path fill="#ffe550" style="fill: var(--color4, #ffe550)" d="M51.041 2.191c0.519-1.254 2.289-1.254 2.808 0l3.066 7.403c0.219 0.529 0.714 0.89 1.283 0.936l7.957 0.641c1.348 0.109 1.895 1.798 0.868 2.682l-6.063 5.216c-0.433 0.373-0.622 0.957-0.49 1.514l1.852 7.799c0.314 1.321-1.117 2.366-2.272 1.658l-6.813-4.179c-0.487-0.299-1.099-0.299-1.585 0l-6.813 4.179c-1.154 0.708-2.586-0.336-2.272-1.658l1.852-7.799c0.132-0.557-0.057-1.142-0.49-1.514l-6.063-5.216c-1.027-0.884-0.481-2.574 0.868-2.682l7.958-0.641c0.568-0.046 1.063-0.407 1.282-0.936l3.066-7.403z"></path>
<path fill="#ffe550" style="fill: var(--color4, #ffe550)" d="M88.374 2.191c0.519-1.254 2.289-1.254 2.808 0l3.066 7.403c0.219 0.529 0.714 0.89 1.283 0.936l7.957 0.641c1.348 0.109 1.895 1.798 0.868 2.682l-6.063 5.216c-0.433 0.373-0.622 0.957-0.49 1.514l1.852 7.799c0.314 1.321-1.117 2.366-2.272 1.658l-6.813-4.179c-0.487-0.299-1.099-0.299-1.585 0l-6.813 4.179c-1.154 0.708-2.586-0.336-2.272-1.658l1.852-7.799c0.132-0.557-0.057-1.142-0.49-1.514l-6.063-5.216c-1.027-0.884-0.481-2.574 0.868-2.682l7.958-0.641c0.568-0.046 1.063-0.407 1.282-0.936l3.066-7.403z"></path>
<path fill="#ffe550" style="fill: var(--color4, #ffe550)" d="M125.707 2.191c0.519-1.254 2.289-1.254 2.808 0l3.066 7.403c0.219 0.529 0.714 0.89 1.283 0.936l7.958 0.641c1.348 0.109 1.895 1.798 0.868 2.682l-6.063 5.216c-0.433 0.373-0.622 0.957-0.49 1.514l1.852 7.799c0.314 1.321-1.117 2.366-2.272 1.658l-6.813-4.179c-0.487-0.299-1.099-0.299-1.585 0l-6.813 4.179c-1.154 0.708-2.586-0.336-2.272-1.658l1.852-7.799c0.132-0.557-0.057-1.142-0.49-1.514l-6.063-5.216c-1.027-0.884-0.481-2.574 0.868-2.682l7.958-0.641c0.568-0.046 1.063-0.407 1.282-0.936l3.066-7.403z"></path>
<path fill="#ffe550" style="fill: var(--color4, #ffe550)" d="M163.041 2.191c0.519-1.254 2.289-1.254 2.808 0l3.066 7.403c0.219 0.529 0.714 0.89 1.283 0.936l7.958 0.641c1.348 0.109 1.895 1.798 0.868 2.682l-6.063 5.216c-0.433 0.373-0.622 0.957-0.49 1.514l1.852 7.799c0.314 1.321-1.117 2.366-2.272 1.658l-6.813-4.179c-0.487-0.299-1.099-0.299-1.585 0l-6.813 4.179c-1.154 0.708-2.586-0.336-2.272-1.658l1.852-7.799c0.132-0.557-0.057-1.142-0.49-1.514l-6.063-5.216c-1.027-0.884-0.481-2.574 0.868-2.682l7.958-0.641c0.568-0.046 1.063-0.407 1.282-0.936l3.066-7.403z"></path>
</symbol>
</defs>
</svg>
